<svg xmlns="http://www.w3.org/2000/svg"><symbol id="fi-blog" viewBox="0 0 484.5 484.5"><path d="M83.583 473.167h339.433c2.55 0 5.1-.567 7.367-1.7 2.267-1.133 54.117-26.917 54.117-78.767V127.5c0-9.35-7.65-17-17-17H408V28.333c0-9.35-7.65-17-17-17H17c-9.35 0-17 7.65-17 17v360.683c0 1.133 0 2.55.283 3.683.85 3.401 18.7 80.468 83.3 80.468zM34 45.333h340V365.5c0 9.35 7.65 17 17 17s17-7.65 17-17v-221h42.5v248.2c0 24.933-23.233 41.367-32.017 46.467h-334.9c-33.433 0-47.033-43.35-49.583-52.417V45.333z"/><path d="M198.333 119c0-9.35-7.65-17-17-17H102c-9.35 0-17 7.65-17 17v90.667c0 9.35 7.65 17 17 17h79.333c9.35 0 17-7.65 17-17V119zM119 136h45.333v56.667H119V136zM96.333 385.333h221c9.35 0 17-7.65 17-17s-7.65-17-17-17h-221c-9.35 0-17 7.65-17 17s7.65 17 17 17zM99.167 303.167H314.5c9.35 0 17-7.65 17-17s-7.65-17-17-17H99.167c-9.35 0-17 7.65-17 17s7.65 17 17 17zM252.167 138.833h65.167c9.35 0 17-7.65 17-17s-7.65-17-17-17h-65.167c-9.35 0-17 7.65-17 17s7.65 17 17 17zM252.167 221h65.167c9.35 0 17-7.65 17-17s-7.65-17-17-17h-65.167c-9.35 0-17 7.65-17 17s7.65 17 17 17z"/></symbol><symbol id="fi-cv" viewBox="0 0 412 412"><path d="M327 188.148c0-19.299-15.701-35-35-35s-35 15.701-35 35 15.701 35 35 35 35-15.701 35-35zm-50 0c0-8.271 6.729-15 15-15s15 6.729 15 15-6.729 15-15 15-15-6.728-15-15zM232 293.148c0 5.522 4.477 10 10 10s10-4.478 10-10c0-22.056 17.944-40 40-40s40 17.944 40 40c0 5.522 4.477 10 10 10s10-4.478 10-10c0-33.084-26.916-60-60-60s-60 26.916-60 60z"/><path d="M382 89.959H130.1v-5.186c0-21.566-17.545-39.111-39.111-39.111-21.565 0-39.11 17.545-39.11 39.111v86.446c0 16.065 13.07 29.135 29.135 29.135s29.135-13.069 29.135-29.135v-41.261c0-5.522-4.477-10-10-10s-10 4.478-10 10v41.261c0 5.037-4.098 9.135-9.135 9.135s-9.135-4.098-9.135-9.135V84.773c0-10.538 8.573-19.111 19.11-19.111S110.1 74.235 110.1 84.773v5.186H91.878c-5.523 0-10 4.478-10 10s4.477 10 10 10H382c5.514 0 10 4.486 10 10v216.379c0 5.514-4.486 10-10 10H30c-5.514 0-10-4.486-10-10V119.959c0-5.514 4.486-10 10-10h1.878c5.523 0 10-4.478 10-10s-4.477-10-10-10H30c-16.542 0-30 13.458-30 30v216.379c0 16.542 13.458 30 30 30h352c16.542 0 30-13.458 30-30V119.959c0-16.542-13.458-30-30-30z"/><path d="M182 189.38c5.523 0 10-4.478 10-10s-4.477-10-10-10h-51.851c-5.523 0-10 4.478-10 10s4.477 10 10 10H182zM60 226.916c0 5.522 4.477 10 10 10h112c5.523 0 10-4.478 10-10s-4.477-10-10-10H70c-5.523 0-10 4.478-10 10zM70 286.916h112c5.523 0 10-4.478 10-10s-4.477-10-10-10H70c-5.523 0-10 4.478-10 10s4.477 10 10 10z"/></symbol><symbol id="fi-diaphragm" viewBox="0 0 54.303 54.303"><path d="M45.832 7.38C41.502 3.283 34.396-.359 26.046.038c-4.429.212-7.811 1.117-10.959 2.789-2.98 1.574-5.697 3.466-7.806 5.76C3.035 13.21-.367 19.739.032 28.281c.409 8.634 3.845 14.064 8.453 18.673 4.665 4.665 10.935 7.386 19.79 7.34 8.059-.045 14.4-4.001 18.673-8.448 4.473-4.658 7.589-10.899 7.343-19.795-.23-8.195-4.057-14.516-8.459-18.671zm1.952 9.469c-4.916-1.378-9.423-2.789-14.398-4.267-2.087-.624-3.797-1.239-6.413-1.117-.125-.358.362-.547.559-.742 1.815-1.816 4.03-3.891 5.944-5.668 6.924 1.783 11.381 6.028 14.308 11.794zM38.96 27.164c.014 6.81-5.358 11.917-11.986 11.798-6.472-.12-12.029-5.424-11.61-12.356.29-4.794 3.165-8.46 6.78-10.126 1.114-.517 2.556-.871 4.181-1.023 3.718-.341 7.051 1.345 8.917 3.163 1.898 1.84 3.712 4.679 3.718 8.544zM28.463 4.035c.072.444-.475.591-.743.833-2.259 2.086-4.653 4.413-6.965 6.597-2.645 2.494-5.556 4.917-7.339 8.082-.986-2.792-1.513-6.04-2.322-9.011 4.016-3.936 9.25-6.66 17.369-6.501zm-20.625 10.5c.075-.021.086.036.093.091.796 3.422 1.77 7.04 2.597 10.59.829 3.546 1.362 7.194 3.064 10.031-2.894-.54-5.867-1.813-9.009-2.415-1.431-6.87.139-14.272 3.255-18.297zM6.443 37.569c6.864 1.569 13.002 4.653 20.904 5.481.145.34-.355.541-.558.741-1.834 1.834-4.098 3.888-6.04 5.671-6.695-2.039-11.291-6.172-14.306-11.893zm33.352 9.011c-3.403 2.363-8.516 4.102-13.937 3.718 2.838-3.021 5.99-5.963 9.106-8.823 2.196-2.021 4.527-3.796 5.944-6.688.518 1.391 1.282 4.78 1.766 6.875.157.68.54 1.868.465 2.226-.159.735-2.714 2.258-3.344 2.692zm6.782-6.593c-2.383-6.629-2.746-15.279-5.948-21.087 3.047.918 6.02 1.909 9.104 2.785 1.732 6.806-.209 14.166-3.156 18.302z"/></symbol><symbol id="fi-diploma" viewBox="0 0 480 480"><path d="M424 104.668H296c-4.424 0-8 3.584-8 8s3.576 8 8 8h128c4.424 0 8-3.584 8-8s-3.576-8-8-8zM424 56.668H216c-4.416 0-8 3.584-8 8s3.584 8 8 8h208c4.424 0 8-3.584 8-8s-3.576-8-8-8zM432 160.668c0-4.416-3.576-8-8-8H216c-4.416 0-8 3.584-8 8s3.584 8 8 8h208c4.424 0 8-3.584 8-8z"/><path d="M456 .668H24c-13.232 0-24 10.768-24 24v336c0 13.232 10.768 24 24 24h288c4.424 0 8-3.584 8-8s-3.576-8-8-8H24c-4.408 0-8-3.592-8-8v-336c0-4.408 3.592-8 8-8h432c4.416 0 8 3.592 8 8v192c0 4.416 3.576 8 8 8s8-3.584 8-8v-192c0-13.232-10.768-24-24-24z"/><path d="M391.76 198.372c-48.392 0-87.76 39.336-87.76 87.68 0 27.232 12.472 51.608 32 67.72v117.56a8.003 8.003 0 0 0 4.224 7.056 8.003 8.003 0 0 0 8.208-.4L392 448.948l43.56 29.04a7.949 7.949 0 0 0 4.44 1.344 8.006 8.006 0 0 0 3.776-.944 8.003 8.003 0 0 0 4.224-7.056V353.34c19.248-16.112 31.52-40.288 31.52-67.288 0-48.344-39.368-87.68-87.76-87.68zM432 456.388l-35.56-23.704a7.993 7.993 0 0 0-8.872 0L352 456.388v-92.2c9.768 4.992 20.56 8.224 32 9.232v27.248c0 4.416 3.576 8 8 8s8-3.584 8-8v-27.272c11.448-1.072 22.248-4.384 32-9.44v92.432zm-40.24-98.568c-39.568 0-71.76-32.192-71.76-71.76 0-39.52 32.184-71.68 71.76-71.68 39.576 0 71.768 32.16 71.768 71.68-.008 39.568-32.2 71.76-71.768 71.76z"/><path d="M391.736 241.004c-4.424 0-8 3.584-8 8s3.576 8 8 8c16.04 0 29.096 13.048 29.096 29.088s-13.056 29.088-29.096 29.088c-4.424 0-8 3.584-8 8s3.576 8 8 8c24.864 0 45.096-20.224 45.096-45.088 0-24.856-20.232-45.088-45.096-45.088zM135.688 282.436a8.016 8.016 0 0 0-6.464-5.448l-26.72-3.872-11.976-24.232a7.994 7.994 0 0 0-7.168-4.456h-.008a7.977 7.977 0 0 0-7.168 4.472l-11.896 24.216-26.72 3.872a8.014 8.014 0 0 0-6.464 5.448 7.987 7.987 0 0 0 2.024 8.2l19.312 18.832-4.56 26.568a8.002 8.002 0 0 0 3.176 7.824 7.978 7.978 0 0 0 4.704 1.528 8.087 8.087 0 0 0 3.72-.912l23.88-12.536 23.968 12.536a7.997 7.997 0 0 0 11.584-8.448l-4.56-26.576 19.304-18.824a7.972 7.972 0 0 0 2.032-8.192zm-35.512 18.504a8 8 0 0 0-2.296 7.08l2.536 14.776-13.352-6.984a7.975 7.975 0 0 0-3.704-.912c-1.28 0-2.552.304-3.72.912l-13.248 6.96 2.528-14.752a7.993 7.993 0 0 0-2.296-7.08l-10.712-10.448 14.832-2.152a8.011 8.011 0 0 0 6.032-4.392l6.6-13.432 6.648 13.448a7.998 7.998 0 0 0 6.024 4.376l14.832 2.152-10.704 10.448zM263.688 282.436a8.016 8.016 0 0 0-6.464-5.448l-26.72-3.872-11.976-24.232a7.994 7.994 0 0 0-7.168-4.456h-.008a7.977 7.977 0 0 0-7.168 4.472l-11.896 24.216-26.712 3.872a8.014 8.014 0 0 0-6.464 5.448 7.987 7.987 0 0 0 2.024 8.2l19.312 18.832-4.56 26.568a8.002 8.002 0 0 0 3.176 7.824 7.978 7.978 0 0 0 4.704 1.528 8.087 8.087 0 0 0 3.72-.912l23.88-12.536 23.968 12.536a7.984 7.984 0 0 0 8.416-.624 7.997 7.997 0 0 0 3.168-7.824l-4.56-26.576 19.304-18.824a8.002 8.002 0 0 0 2.024-8.192zm-35.512 18.504a8 8 0 0 0-2.296 7.08l2.536 14.776-13.352-6.984a7.975 7.975 0 0 0-3.704-.912c-1.28 0-2.552.304-3.72.912l-13.248 6.96 2.528-14.752a7.993 7.993 0 0 0-2.296-7.08l-10.712-10.448 14.832-2.152a8.011 8.011 0 0 0 6.032-4.392l6.6-13.432 6.648 13.448a7.998 7.998 0 0 0 6.024 4.376l14.832 2.152-10.704 10.448zM56 72.668h128c4.416 0 8-3.584 8-8s-3.584-8-8-8H56c-4.416 0-8 3.584-8 8s3.584 8 8 8zM56 120.668h208c4.424 0 8-3.584 8-8s-3.576-8-8-8H56c-4.416 0-8 3.584-8 8s3.584 8 8 8zM56 168.668h128c4.416 0 8-3.584 8-8s-3.584-8-8-8H56c-4.416 0-8 3.584-8 8s3.584 8 8 8zM272 208.668c0-4.416-3.576-8-8-8H56c-4.416 0-8 3.584-8 8s3.584 8 8 8h208c4.424 0 8-3.584 8-8z"/></symbol><symbol id="fi-experience" viewBox="0 0 47 47"><path d="M11.355 22.761v7.406a2.962 2.962 0 1 0 5.925 0v-7.406a2.963 2.963 0 0 0-5.925 0zM18.763 19.797v10.37a2.962 2.962 0 0 0 2.963 2.963 2.962 2.962 0 0 0 2.963-2.963v-10.37a2.963 2.963 0 1 0-5.926 0zM26.169 16.833v13.333a2.962 2.962 0 0 0 2.963 2.963 2.962 2.962 0 0 0 2.964-2.963V16.833a2.962 2.962 0 0 0-2.964-2.962 2.961 2.961 0 0 0-2.963 2.962z"/><path d="M46.906 20.119a.987.987 0 0 0-.893-.569h-2.93C41.223 9.451 32.355 1.774 21.726 1.774 9.746 1.774 0 11.521 0 23.5s9.746 21.726 21.726 21.726c7.73 0 14.941-4.161 18.816-10.858a1.975 1.975 0 1 0-3.419-1.977c-3.172 5.479-9.071 8.887-15.397 8.887C11.924 41.275 3.95 33.303 3.95 23.5c0-9.802 7.974-17.775 17.775-17.775 8.443 0 15.515 5.921 17.317 13.825h-2.905a.992.992 0 0 0-.895.569.991.991 0 0 0 .136 1.051l4.938 5.926a.99.99 0 0 0 1.517 0l4.938-5.926a.985.985 0 0 0 .135-1.051z"/></symbol><symbol id="fi-search" viewBox="0 0 475.084 475.084"><path d="M464.524 412.846l-97.929-97.925c23.6-34.068 35.406-72.047 35.406-113.917 0-27.218-5.284-53.249-15.852-78.087-10.561-24.842-24.838-46.254-42.825-64.241-17.987-17.987-39.396-32.264-64.233-42.826C254.246 5.285 228.217.003 200.999.003c-27.216 0-53.247 5.282-78.085 15.847C98.072 26.412 76.66 40.689 58.673 58.676c-17.989 17.987-32.264 39.403-42.827 64.241C5.282 147.758 0 173.786 0 201.004c0 27.216 5.282 53.238 15.846 78.083 10.562 24.838 24.838 46.247 42.827 64.234 17.987 17.993 39.403 32.264 64.241 42.832 24.841 10.563 50.869 15.844 78.085 15.844 41.879 0 79.852-11.807 113.922-35.405l97.929 97.641c6.852 7.231 15.406 10.849 25.693 10.849 9.897 0 18.467-3.617 25.694-10.849 7.23-7.23 10.848-15.796 10.848-25.693.003-10.082-3.518-18.651-10.561-25.694zM291.363 291.358c-25.029 25.033-55.148 37.549-90.364 37.549-35.21 0-65.329-12.519-90.36-37.549-25.031-25.029-37.546-55.144-37.546-90.36 0-35.21 12.518-65.334 37.546-90.36 25.026-25.032 55.15-37.546 90.36-37.546 35.212 0 65.331 12.519 90.364 37.546 25.033 25.026 37.548 55.15 37.548 90.36 0 35.216-12.519 65.331-37.548 90.36z"/></symbol><symbol id="fi-skills" viewBox="0 0 512 512"><path d="M501.859 184.549c-2.587-8.848-11.87-13.924-20.696-11.364-8.859 2.581-13.945 11.848-11.37 20.701 5.848 20.086 8.815 40.983 8.815 62.113 0 122.744-99.859 222.609-222.609 222.609-62.856 0-122.063-26.614-163.981-72.353h32.775c9.217 0 16.696-7.473 16.696-16.696 0-9.223-7.479-16.584-16.696-16.584H58.011c-10.011 0-18.918 9.167-16.696 20.132v63.235c0 9.223 7.479 16.696 16.696 16.696s16.696-7.473 16.696-16.696v-19.771C122.348 484.43 187.301 512 256 512c141.163 0 256-114.843 256-256 0-24.288-3.413-48.332-10.141-71.451zM456.347 38.957c-9.217 0-16.696 7.473-16.696 16.696v22.214C391.811 28.514 325.865 0 256 0 114.837 0 0 114.843 0 256c0 24.293 3.413 48.332 10.141 71.445 2.608 8.926 11.926 13.934 20.696 11.359 8.859-2.576 13.945-11.843 11.37-20.696-5.848-20.08-8.815-40.978-8.815-62.108C33.391 133.256 133.25 33.391 256 33.391c62.869 0 122.065 26.606 163.976 72.348h-30.411c-9.217 0-16.696 7.473-16.696 16.696 0 9.223 7.479 16.696 16.696 16.696H454.486c11.986 0 18.557-7.751 18.557-16.696V55.652c-.001-9.222-7.479-16.695-16.696-16.695z"/><path d="M372.978 205.913h-83.59V89.044c.001-16.469-21.352-22.971-30.475-9.261L125.348 280.131c-7.402 11.116.613 25.956 13.891 25.956h83.478v116.87c0 16.472 21.459 22.966 30.586 9.26l133.565-200.348c7.402-11.116-.613-25.956-13.89-25.956z"/></symbol></svg>