<?xml version="1.0" encoding="UTF-8"?><!DOCTYPE svg PUBLIC "-//W3C//DTD SVG 1.1//EN" "http://www.w3.org/Graphics/SVG/1.1/DTD/svg11.dtd"><svg class="display-none" xmlns="http://www.w3.org/2000/svg"><symbol id="fi-blog" viewBox="0 0 484.5 484.5"><path d="M83.583 473.167h339.433c2.55 0 5.1-.567 7.367-1.7 2.267-1.133 54.117-26.917 54.117-78.767V127.5c0-9.35-7.65-17-17-17H408V28.333c0-9.35-7.65-17-17-17H17c-9.35 0-17 7.65-17 17v360.683c0 1.133 0 2.55.283 3.683.85 3.401 18.7 80.468 83.3 80.468zM34 45.333h340V365.5c0 9.35 7.65 17 17 17s17-7.65 17-17v-221h42.5v248.2c0 24.933-23.233 41.367-32.017 46.467h-334.9c-33.433 0-47.033-43.35-49.583-52.417V45.333z"/><path d="M198.333 119c0-9.35-7.65-17-17-17H102c-9.35 0-17 7.65-17 17v90.667c0 9.35 7.65 17 17 17h79.333c9.35 0 17-7.65 17-17V119zM119 136h45.333v56.667H119V136zM96.333 385.333h221c9.35 0 17-7.65 17-17s-7.65-17-17-17h-221c-9.35 0-17 7.65-17 17s7.65 17 17 17zM99.167 303.167H314.5c9.35 0 17-7.65 17-17s-7.65-17-17-17H99.167c-9.35 0-17 7.65-17 17s7.65 17 17 17zM252.167 138.833h65.167c9.35 0 17-7.65 17-17s-7.65-17-17-17h-65.167c-9.35 0-17 7.65-17 17s7.65 17 17 17zM252.167 221h65.167c9.35 0 17-7.65 17-17s-7.65-17-17-17h-65.167c-9.35 0-17 7.65-17 17s7.65 17 17 17z"/></symbol><symbol id="fi-cv" viewBox="0 0 412 412"><path d="M327 188.148c0-19.299-15.701-35-35-35s-35 15.701-35 35 15.701 35 35 35 35-15.701 35-35zm-50 0c0-8.271 6.729-15 15-15s15 6.729 15 15-6.729 15-15 15-15-6.728-15-15zM232 293.148c0 5.522 4.477 10 10 10s10-4.478 10-10c0-22.056 17.944-40 40-40s40 17.944 40 40c0 5.522 4.477 10 10 10s10-4.478 10-10c0-33.084-26.916-60-60-60s-60 26.916-60 60z"/><path d="M382 89.959H130.1v-5.186c0-21.566-17.545-39.111-39.111-39.111-21.565 0-39.11 17.545-39.11 39.111v86.446c0 16.065 13.07 29.135 29.135 29.135s29.135-13.069 29.135-29.135v-41.261c0-5.522-4.477-10-10-10s-10 4.478-10 10v41.261c0 5.037-4.098 9.135-9.135 9.135s-9.135-4.098-9.135-9.135V84.773c0-10.538 8.573-19.111 19.11-19.111S110.1 74.235 110.1 84.773v5.186H91.878c-5.523 0-10 4.478-10 10s4.477 10 10 10H382c5.514 0 10 4.486 10 10v216.379c0 5.514-4.486 10-10 10H30c-5.514 0-10-4.486-10-10V119.959c0-5.514 4.486-10 10-10h1.878c5.523 0 10-4.478 10-10s-4.477-10-10-10H30c-16.542 0-30 13.458-30 30v216.379c0 16.542 13.458 30 30 30h352c16.542 0 30-13.458 30-30V119.959c0-16.542-13.458-30-30-30z"/><path d="M182 189.38c5.523 0 10-4.478 10-10s-4.477-10-10-10h-51.851c-5.523 0-10 4.478-10 10s4.477 10 10 10H182zM60 226.916c0 5.522 4.477 10 10 10h112c5.523 0 10-4.478 10-10s-4.477-10-10-10H70c-5.523 0-10 4.478-10 10zM70 286.916h112c5.523 0 10-4.478 10-10s-4.477-10-10-10H70c-5.523 0-10 4.478-10 10s4.477 10 10 10z"/></symbol><symbol id="fi-search" viewBox="0 0 475.084 475.084"><path d="M464.524 412.846l-97.929-97.925c23.6-34.068 35.406-72.047 35.406-113.917 0-27.218-5.284-53.249-15.852-78.087-10.561-24.842-24.838-46.254-42.825-64.241-17.987-17.987-39.396-32.264-64.233-42.826C254.246 5.285 228.217.003 200.999.003c-27.216 0-53.247 5.282-78.085 15.847C98.072 26.412 76.66 40.689 58.673 58.676c-17.989 17.987-32.264 39.403-42.827 64.241C5.282 147.758 0 173.786 0 201.004c0 27.216 5.282 53.238 15.846 78.083 10.562 24.838 24.838 46.247 42.827 64.234 17.987 17.993 39.403 32.264 64.241 42.832 24.841 10.563 50.869 15.844 78.085 15.844 41.879 0 79.852-11.807 113.922-35.405l97.929 97.641c6.852 7.231 15.406 10.849 25.693 10.849 9.897 0 18.467-3.617 25.694-10.849 7.23-7.23 10.848-15.796 10.848-25.693.003-10.082-3.518-18.651-10.561-25.694zM291.363 291.358c-25.029 25.033-55.148 37.549-90.364 37.549-35.21 0-65.329-12.519-90.36-37.549-25.031-25.029-37.546-55.144-37.546-90.36 0-35.21 12.518-65.334 37.546-90.36 25.026-25.032 55.15-37.546 90.36-37.546 35.212 0 65.331 12.519 90.364 37.546 25.033 25.026 37.548 55.15 37.548 90.36 0 35.216-12.519 65.331-37.548 90.36z"/></symbol></svg>