<svg version="1.1" id="Capa_1" xmlns="http://www.w3.org/2000/svg" xmlns:xlink="http://www.w3.org/1999/xlink" x="0px" y="0px"
	 viewBox="0 0 484.5 484.5" style="enable-background:new 0 0 484.5 484.5;" xml:space="preserve">
		<path d="M83.583,473.167h339.433c2.55,0,5.1-0.567,7.367-1.7c2.267-1.133,54.117-26.917,54.117-78.767V127.5c0-9.35-7.65-17-17-17
			H408v-34V28.333c0-9.35-7.65-17-17-17H17c-9.35,0-17,7.65-17,17v360.683c0,1.133,0,2.55,0.283,3.683
			C1.133,396.1,18.983,473.167,83.583,473.167z M34,45.333h340V76.5v51v238c0,9.35,7.65,17,17,17s17-7.65,17-17v-221h42.5v248.2
			c0,24.933-23.233,41.367-32.017,46.467h-334.9c-33.433,0-47.033-43.35-49.583-52.417V45.333z"/>
		<path d="M198.333,119c0-9.35-7.65-17-17-17H102c-9.35,0-17,7.65-17,17v90.667c0,9.35,7.65,17,17,17h79.333c9.35,0,17-7.65,17-17
			V119z M119,136h45.333v56.667H119V136z"/>
		<path d="M96.333,385.333h221c9.35,0,17-7.65,17-17s-7.65-17-17-17h-221c-9.35,0-17,7.65-17,17S86.983,385.333,96.333,385.333z"/>
		<path d="M99.167,303.167H314.5c9.35,0,17-7.65,17-17s-7.65-17-17-17H99.167c-9.35,0-17,7.65-17,17S89.817,303.167,99.167,303.167z
			"/>
		<path d="M252.167,138.833h65.167c9.35,0,17-7.65,17-17c0-9.35-7.65-17-17-17h-65.167c-9.35,0-17,7.65-17,17
			S242.817,138.833,252.167,138.833z"/>
		<path d="M252.167,221h65.167c9.35,0,17-7.65,17-17s-7.65-17-17-17h-65.167c-9.35,0-17,7.65-17,17S242.817,221,252.167,221z"/>

</svg>
