<svg xmlns="http://www.w3.org/2000/svg" viewBox="0 0 100 100">
    <path d="M14.338 24.702l17.277 5.81c1.423.623 8.179 3.095 20.158.125C66.906 26.883 99.67 20.381 100 20.312l-1.22-6.157-.218.044-31.226-4.402c-3.434-.484-8.978-.342-12.383.32l-41.747 8.098C7.775 17.934 2.611 21.271.88 26.68a12.184 12.184 0 0 0 .782 9.354 12.324 12.324 0 0 0 3.063 3.811 12.213 12.213 0 0 0-4.136 5.92 12.215 12.215 0 0 0 .782 9.357 12.196 12.196 0 0 0 3.293 3.965 12.237 12.237 0 0 0-4.077 5.879 12.207 12.207 0 0 0 .782 9.354 12.19 12.19 0 0 0 7.167 6.059l30.097 9.623c1.652.528 4.361.645 6.052.254l52.834-12.104-.702-3.058a3.139 3.139 0 0 0-3.762-2.359l-48.1 11.014c-1.689.389-4.397.271-6.052-.254L10.45 74.401a5.942 5.942 0 0 1-3.498-2.958 5.924 5.924 0 0 1-.381-4.561c1.005-3.146 4.38-4.869 7.526-3.884.007-.029 17.411 5.532 24.539 7.802 1.652.528 4.361.645 6.052.254l52.834-12.102-.702-3.06a3.139 3.139 0 0 0-3.762-2.359l-48.1 11.017c-1.689.386-4.397.269-6.052-.254L10.45 55.198a5.942 5.942 0 0 1-3.498-2.958 5.924 5.924 0 0 1-.381-4.561c1.005-3.146 4.38-4.872 7.526-3.884.002-.01 17.646 5.629 24.83 7.922 1.65.528 4.361.645 6.05.254L97.81 39.867s-.315-1.366-.702-3.06a3.14 3.14 0 0 0-3.762-2.356l-48.1 11.012c-1.689.391-4.397.274-6.052-.254l-28.457-9.095a5.945 5.945 0 0 1-3.498-2.96 5.924 5.924 0 0 1-.381-4.561c1.005-3.143 4.379-4.893 7.48-3.891z"
          fill="#000"/>
</svg>