<svg version="1.1" id="Capa_1" xmlns="http://www.w3.org/2000/svg" xmlns:xlink="http://www.w3.org/1999/xlink" x="0px" y="0px"
	 viewBox="0 0 412 412" style="enable-background:new 0 0 412 412;" xml:space="preserve">

	<path d="M327,188.148c0-19.299-15.701-35-35-35s-35,15.701-35,35s15.701,35,35,35S327,207.447,327,188.148z M277,188.148
		c0-8.271,6.729-15,15-15s15,6.729,15,15s-6.729,15-15,15S277,196.42,277,188.148z"/>
	<path d="M232,293.148c0,5.522,4.477,10,10,10s10-4.478,10-10c0-22.056,17.944-40,40-40s40,17.944,40,40c0,5.522,4.477,10,10,10
		s10-4.478,10-10c0-33.084-26.916-60-60-60S232,260.064,232,293.148z"/>
	<path d="M382,89.959H130.1v-5.186c0-21.566-17.545-39.111-39.111-39.111c-21.565,0-39.11,17.545-39.11,39.111v86.446
		c0,16.065,13.07,29.135,29.135,29.135s29.135-13.069,29.135-29.135v-41.261c0-5.522-4.477-10-10-10s-10,4.478-10,10v41.261
		c0,5.037-4.098,9.135-9.135,9.135s-9.135-4.098-9.135-9.135V84.773c0-10.538,8.573-19.111,19.11-19.111S110.1,74.235,110.1,84.773
		v5.186H91.878c-5.523,0-10,4.478-10,10s4.477,10,10,10H382c5.514,0,10,4.486,10,10v216.379c0,5.514-4.486,10-10,10H30
		c-5.514,0-10-4.486-10-10V119.959c0-5.514,4.486-10,10-10h1.878c5.523,0,10-4.478,10-10s-4.477-10-10-10H30
		c-16.542,0-30,13.458-30,30v216.379c0,16.542,13.458,30,30,30h352c16.542,0,30-13.458,30-30V119.959
		C412,103.417,398.542,89.959,382,89.959z"/>
	<path d="M182,189.38c5.523,0,10-4.478,10-10s-4.477-10-10-10h-51.851c-5.523,0-10,4.478-10,10s4.477,10,10,10H182z"/>
	<path d="M60,226.916c0,5.522,4.477,10,10,10h112c5.523,0,10-4.478,10-10s-4.477-10-10-10H70C64.477,216.916,60,221.394,60,226.916z
		"/>
	<path d="M70,286.916h112c5.523,0,10-4.478,10-10s-4.477-10-10-10H70c-5.523,0-10,4.478-10,10S64.477,286.916,70,286.916z"/>
</svg>
