<?xml version="1.0" encoding="iso-8859-1"?>
<!-- Generator: Adobe Illustrator 16.0.0, SVG Export Plug-In . SVG Version: 6.00 Build 0)  -->
<!DOCTYPE svg PUBLIC "-//W3C//DTD SVG 1.1//EN" "http://www.w3.org/Graphics/SVG/1.1/DTD/svg11.dtd">
<svg version="1.1" id="Capa_1" xmlns="http://www.w3.org/2000/svg" xmlns:xlink="http://www.w3.org/1999/xlink" x="0px" y="0px"
	 width="54.303px" height="54.303px" viewBox="0 0 54.303 54.303" style="enable-background:new 0 0 54.303 54.303;"
	 xml:space="preserve">
<g>
	<path d="M45.832,7.38c-4.33-4.097-11.436-7.739-19.786-7.342c-4.429,0.212-7.811,1.117-10.959,2.789
		c-2.98,1.574-5.697,3.466-7.806,5.76C3.035,13.21-0.367,19.739,0.032,28.281c0.409,8.634,3.845,14.064,8.453,18.673
		c4.665,4.665,10.935,7.386,19.79,7.34c8.059-0.045,14.4-4.001,18.673-8.448c4.473-4.658,7.589-10.899,7.343-19.795
		C54.061,17.856,50.234,11.535,45.832,7.38z M47.784,16.849c-4.916-1.378-9.423-2.789-14.398-4.267
		c-2.087-0.624-3.797-1.239-6.413-1.117c-0.125-0.358,0.362-0.547,0.559-0.742c1.815-1.816,4.03-3.891,5.944-5.668
		C40.4,6.838,44.857,11.083,47.784,16.849z M38.96,27.164c0.014,6.81-5.358,11.917-11.986,11.798
		c-6.472-0.12-12.029-5.424-11.61-12.356c0.29-4.794,3.165-8.46,6.78-10.126c1.114-0.517,2.556-0.871,4.181-1.023
		c3.718-0.341,7.051,1.345,8.917,3.163C37.14,20.46,38.954,23.299,38.96,27.164z M28.463,4.035c0.072,0.444-0.475,0.591-0.743,0.833
		c-2.259,2.086-4.653,4.413-6.965,6.597c-2.645,2.494-5.556,4.917-7.339,8.082c-0.986-2.792-1.513-6.04-2.322-9.011
		C15.11,6.6,20.344,3.876,28.463,4.035z M7.838,14.535c0.075-0.021,0.086,0.036,0.093,0.091c0.796,3.422,1.77,7.04,2.597,10.59
		c0.829,3.546,1.362,7.194,3.064,10.031c-2.894-0.54-5.867-1.813-9.009-2.415C3.152,25.962,4.722,18.56,7.838,14.535z M6.443,37.569
		c6.864,1.569,13.002,4.653,20.904,5.481c0.145,0.34-0.355,0.541-0.558,0.741c-1.834,1.834-4.098,3.888-6.04,5.671
		C14.054,47.423,9.458,43.29,6.443,37.569z M39.795,46.58c-3.403,2.363-8.516,4.102-13.937,3.718
		c2.838-3.021,5.99-5.963,9.106-8.823c2.196-2.021,4.527-3.796,5.944-6.688c0.518,1.391,1.282,4.78,1.766,6.875
		c0.157,0.68,0.54,1.868,0.465,2.226C42.98,44.623,40.425,46.146,39.795,46.58z M46.577,39.987
		c-2.383-6.629-2.746-15.279-5.948-21.087c3.047,0.918,6.02,1.909,9.104,2.785C51.465,28.491,49.524,35.851,46.577,39.987z"/>
</g>
<g>
</g>
<g>
</g>
<g>
</g>
<g>
</g>
<g>
</g>
<g>
</g>
<g>
</g>
<g>
</g>
<g>
</g>
<g>
</g>
<g>
</g>
<g>
</g>
<g>
</g>
<g>
</g>
<g>
</g>
</svg>
