<svg xmlns="http://www.w3.org/2000/svg" viewBox="0 0 100 100">
    <g fill="#000">
        <path d="M24.16 48.428v15.757c0 3.485 2.823 6.304 6.306 6.304s6.3-2.819 6.3-6.304V48.428a6.299 6.299 0 0 0-6.3-6.304 6.303 6.303 0 0 0-6.306 6.304zM39.921 42.121v22.064c0 3.485 2.821 6.304 6.304 6.304s6.304-2.819 6.304-6.304V42.121a6.303 6.303 0 0 0-6.304-6.304 6.303 6.303 0 0 0-6.304 6.304zM55.679 35.815v28.368a6.3 6.3 0 0 0 6.304 6.304 6.301 6.301 0 0 0 6.306-6.304V35.815a6.3 6.3 0 0 0-6.306-6.302 6.3 6.3 0 0 0-6.304 6.302z"/>
        <path d="M99.8 42.806a2.101 2.101 0 0 0-1.9-1.211h-6.234C87.708 20.109 68.84 3.774 46.226 3.774 20.736 3.774 0 24.513 0 50s20.736 46.226 46.226 46.226c16.447 0 31.789-8.853 40.034-23.102a4.203 4.203 0 1 0-7.275-4.207c-6.749 11.657-19.3 18.909-32.76 18.909C25.37 87.819 8.404 70.857 8.404 50c0-20.855 16.966-37.819 37.819-37.819 17.964 0 33.011 12.598 36.845 29.415h-6.181c-.815 0-1.553.472-1.904 1.211a2.108 2.108 0 0 0 .289 2.236l10.506 12.609a2.105 2.105 0 0 0 3.228 0l10.506-12.609a2.096 2.096 0 0 0 .288-2.237z"/>
    </g>
</svg>