<?xml version="1.0" encoding="utf-8"?>
<!-- Generator: Adobe Illustrator 18.1.1, SVG Export Plug-In . SVG Version: 6.00 Build 0)  -->
<svg version="1.1" id="logo" xmlns="http://www.w3.org/2000/svg" xmlns:xlink="http://www.w3.org/1999/xlink" x="0px" y="0px"
	 viewBox="0 0 100 100" enable-background="new 0 0 100 100" xml:space="preserve">
<circle fill="none" stroke="#414042" stroke-width="3" stroke-miterlimit="10" cx="50" cy="50" r="48"/>
<path fill="none" stroke="#414042" stroke-width="3" stroke-miterlimit="10" d="M18.3,50c0-17.1,13.4-31.2,31.6-31.2
	c10.9,0,17.4,2.9,23.7,8.3l-8.4,10.1c-4.7-3.9-8.8-6.1-15.8-6.1c-9.7,0-17.3,8.5-17.3,19c0,11,7.6,19.1,18.3,19.1
	c4.8,0,9.1-1.2,12.5-3.6V57H49.6V45.4h26.2v26.2c-6.2,5.3-14.7,9.6-25.8,9.6C31.3,81.2,18.3,68,18.3,50z"/>
</svg>
