<svg xmlns="http://www.w3.org/2000/svg" viewBox="0 0 100 100">
    <path d="M97.777 86.899L77.164 66.287c4.968-7.171 7.453-15.165 7.453-23.978 0-5.729-1.112-11.208-3.337-16.436-2.223-5.229-5.228-9.736-9.014-13.522-3.786-3.786-8.292-6.791-13.52-9.014C53.516 1.113 48.038.001 42.309.001c-5.729 0-11.208 1.112-16.436 3.336-5.229 2.223-9.736 5.228-13.522 9.014-3.786 3.786-6.791 8.294-9.015 13.522S0 36.58 0 42.309c0 5.729 1.112 11.206 3.335 16.436 2.223 5.228 5.228 9.734 9.015 13.521 3.786 3.787 8.294 6.791 13.522 9.016 5.229 2.223 10.707 3.335 16.436 3.335 8.815 0 16.808-2.485 23.979-7.452L86.9 97.716c1.442 1.522 3.243 2.284 5.408 2.284 2.083 0 3.887-.761 5.408-2.284 1.522-1.522 2.283-3.325 2.283-5.408.002-2.122-.739-3.926-2.222-5.409zM61.329 61.328c-5.268 5.269-11.608 7.904-19.021 7.904-7.411 0-13.751-2.635-19.02-7.904-5.269-5.268-7.903-11.607-7.903-19.02 0-7.411 2.635-13.752 7.903-19.02 5.268-5.269 11.608-7.903 19.02-7.903 7.412 0 13.751 2.635 19.021 7.903 5.269 5.268 7.903 11.608 7.903 19.02 0 7.412-2.635 13.751-7.903 19.02z"
          fill="#000"/>
</svg>