<?xml version="1.0" standalone="no"?><!DOCTYPE svg PUBLIC "-//W3C//DTD SVG 20010904//EN" "http://www.w3.org/TR/2001/REC-SVG-20010904/DTD/svg10.dtd"><svg xmlns="http://www.w3.org/2000/svg" version="1.0" viewBox="0 0 1280 1280"><path d="M620.8 6.5c-.2.1-6.6.5-14.3.9-7.7.3-16 .8-18.5 1-2.5.3-7.8.8-11.8 1.1-4 .4-8.1.8-9 1-.9.1-4.6.6-8.2 1-3.6.4-7.3.9-8.3 1.1-1 .2-5.1.8-9 1.3-4 .6-8.1 1.2-9.2 1.5-1.1.2-5.8 1.1-10.5 2-9.3 1.7-11.9 2.3-16.5 3.2-22.9 4.5-80.5 21.8-95 28.4-1.1.5-7.6 3.2-14.5 6.1-28.2 11.6-58.7 27.2-86.5 44.2-85.9 52.5-160.4 127.2-211.4 212.2-3.9 6.6-7.6 12.7-8.1 13.5-.6.8-1.3 2.2-1.7 3-.4.8-1.9 3.6-3.5 6.2-3.6 6.2-15.7 30.1-20.3 40.3-3.2 6.8-5.5 12.1-12.8 29.5-.6 1.4-1.1 2.7-1.2 3 0 .3-1.5 4.3-3.3 8.9-6.6 16.7-17.8 52-20.7 64.7-.2 1-1.4 5.7-2.5 10.4-1.2 4.7-2.4 9.6-2.6 11-.3 1.4-1.6 7.7-2.9 14-2.4 11.4-3.8 19.7-5.1 29.5-.3 2.7-.8 5.2-.9 5.5-.2.3-.6 3.7-1 7.5-.4 3.9-.9 7.8-1 8.7-.2.9-.6 5-1 9-.3 4-.8 9.3-1.1 11.8C6 613.8 6 665 8.5 692.5c.2 2.7.7 7.9 1 11.5.6 6.6 2.3 20.1 2.9 23.6.2 1 .7 4.1 1 6.9.8 5.4 1.6 10.8 2.1 13.4.1.9 1 5.4 1.9 10.1.9 4.7 1.8 9.6 2.1 11 .3 1.4.8 3.8 1.1 5.5.3 1.6 2.8 12 5.6 23 21.7 85.9 61.7 166.3 118.3 237.5 5 6.3 9.8 12.2 10.6 13 .8.8 2.7 3.1 4.3 5 10.2 12.6 39.7 42.7 56.6 57.9 5.8 5.2 10.7 9.7 11 10.1.3.3 2.1 1.7 4.2 3.2 2 1.5 4.2 3.3 5 4.1 6.7 6.5 35.5 27.8 54.3 40.3 33.3 22.1 71.5 42.4 107 56.9 7.7 3.1 15.4 6.3 17 7 13.3 5.7 63.7 21.1 79 24.1 1.1.2 4.7 1 8 1.8 3.3.9 7.1 1.7 8.5 2 1.4.2 6.6 1.2 11.5 2.1 5 1 9.9 1.9 11 2.1 1.1.2 3.4.6 5 .8 1.7.3 5 .8 7.5 1.2 2.5.3 5.2.7 6 .9.8.2 4.7.7 8.5 1.1 3.9.3 7.2.8 7.5.9.3.2 4.6.6 9.5 1 5 .4 10.1.8 11.5 1.1 13.9 2.3 84.8 2.3 104.5-.1 1.7-.2 6.6-.6 10.9-1 4.3-.4 8.6-.8 9.5-1 .9-.1 4.3-.6 7.6-.9 3.3-.4 7.1-.9 8.5-1.1 1.4-.2 4.3-.7 6.5-1 4.3-.6 9.7-1.5 13-2.2 1.1-.2 3.5-.6 5.4-.9 1.9-.2 5.2-.9 7.5-1.4 2.2-.5 5.5-1.1 7.1-1.4 5-.9 25.8-5.7 26.5-6.1.4-.2 2-.7 3.7-1 3.7-.6 40-11.2 42.8-12.4 1.1-.5 4.9-1.9 8.5-3.1 3.6-1.2 14.8-5.5 25-9.5 98.1-38.8 184.2-101.7 254.5-186 18.1-21.6 44.8-60.1 58.7-84.5 10.2-17.9 10.6-18.6 18.3-34 21.8-43.2 38.6-89.3 50.1-137 .7-3.2 7.3-35 7.8-38.1.3-1.9 1.1-6.6 1.6-10.6.6-3.9 1.2-8 1.4-9 .2-1 .7-4.7 1.1-8.3.4-3.6.9-7.3 1-8.2.2-.9.6-5 1-9 .3-4 .8-9.3 1.1-11.8 2.3-24.8 2.3-85.7-.1-104.5-.2-1.7-.6-6.2-.9-10.1-1.5-17.8-5-40.6-10.1-66.4-.3-1.4-.8-3.9-1.1-5.5-3.2-17.9-17.7-66.9-27.2-91.6-25.6-66.6-64.3-131.9-109.3-184.3-1-1.2-2.6-3-3.6-4.2-19.8-23-47.9-50.6-73.8-72.4-2.7-2.3-6.1-5.1-7.4-6.3-11.9-10-45.9-34-65.6-46.3C952.8 88.1 918 69.7 898 61c-4.1-1.8-8.8-3.8-10.5-4.6-22.2-10-74.7-27.3-99.5-32.9-15.9-3.5-39.3-8-52.2-9.9-20.9-3.1-28.9-4-56.8-6.2-7.9-.6-57.7-1.4-58.2-.9zm41.2 39c9.6.3 19.8.8 22.5 1 11.6.9 24.4 2.2 30 3 13 1.7 14.8 2 23.5 3.5 3 .5 7.1 1.2 9 1.5 6.4 1 23.4 4.6 31.5 6.7 4.4 1.1 8.8 2.1 9.7 2.3 8.9 1.8 41 11.9 59.8 18.8 57.2 21 121.4 57.7 167 95.6 23.7 19.7 56.1 50.7 70 67.1 3 3.5 6.2 7.1 7 8 .8.8 4.4 5.1 8 9.5 3.5 4.4 6.7 8.2 7 8.5 2 1.8 20.9 28.1 29.5 41 41.8 63 71.2 133.6 86.4 207.5 1.1 5.5 2.3 11.6 2.6 13.5.3 1.9 1 6 1.5 9 1.4 8.4 1.9 11.1 2.6 16.5.3 2.7.8 5.8.9 6.7.2.9.6 4.7 1 8.5.3 3.7.8 8.1 1 9.8.2 1.6.7 8.2 1 14.5.4 6.3.9 13.5 1.1 16 .5 6.7.5 43.3-.1 53-.6 11.3-1.5 24.4-2.1 30-1.7 16.6-2.1 20.2-4.4 35-.9 6.2-4.3 25-5.5 31-6.7 32.7-20.4 76.1-34.5 109.5-9.3 22.1-26.5 55.2-41 79.4-12.3 20.4-45.1 65.1-56.4 76.8-1.2 1.2-3.9 4.3-6.1 7-4.2 5-38.8 39.9-46.5 46.9-9.3 8.4-28.9 24.4-40.5 33.1-15.1 11.3-45.2 31.7-49 33.2-.5.2-1.7.9-2.5 1.6-.8.7-3.7 2.5-6.5 4-2.7 1.5-8.1 4.5-12 6.7-10.8 6.1-43.6 22-57.5 27.8-36.4 15.2-82.3 29.1-118 35.6-9.1 1.7-19.1 3.4-22.5 3.9-2.2.3-5.3.7-7 1-5.3.8-9.8 1.3-17 2-3.8.4-8 .8-9.3 1-1.3.2-7.1.7-13 1-5.9.4-13.2.8-16.2 1-7.9.5-52 .6-55 .1-1.4-.2-8.1-.7-14.9-1.1-6.8-.4-13.1-.8-14-1-.9-.1-5-.6-9.1-1s-7.7-.8-8-1c-.3-.1-3.6-.6-7.5-.9-3.8-.4-7.7-.9-8.5-1.1-.8-.2-3.1-.7-5-1-10-1.6-17.4-2.9-22-3.9-1.4-.3-4.1-.9-6-1.2-1.9-.4-8-1.8-13.5-3.1-5.5-1.4-10.9-2.7-11.9-2.9-1-.2-7.6-2-14.5-3.9-86.6-24.8-165.6-68.3-233.6-128.6-15.8-14-48-47.4-61.1-63.5-3.1-3.8-6.9-8.5-8.5-10.4-20.5-25-47.6-67.1-64.1-99.5-25.1-49.1-45.2-107.6-54.3-158-1.7-9.1-4.2-24.6-5-30.5-.3-2.5-.8-5.6-1-7-.2-1.4-.7-5.4-1-9-.4-3.6-.8-7.6-1-9-.4-3-1.4-18-2-30.5-.6-10.8-.6-48 0-55 .2-2.8.7-9.5 1-15 1.2-16.9 1.5-20.6 3.6-35.5 1.1-7.8 1.1-8.2 2.9-19.5 3.8-24.4 13.2-62.2 21.9-88.4 25.9-77.5 64.8-145 119.4-207.4 11.5-13.1 41.1-42.7 50.7-50.7 2.9-2.5 6.1-5.2 6.9-6.1 1.5-1.4 11.3-9.6 15.1-12.6 26.3-20.7 46.7-34.8 73-50.3 16.1-9.5 49-26.1 65-32.9 6.9-2.9 13.4-5.6 14.5-6.1 21.1-9.1 70.1-23.9 97.5-29.5 6.2-1.2 24.9-4.6 31-5.5 4.1-.6 8.6-1.3 10-1.6 1.4-.2 5-.6 8-1 3-.3 6.5-.7 7.8-.9 1.2-.2 6.2-.7 11-1 4.8-.4 10.1-.9 11.7-1.1 1.7-.2 11.8-.6 22.5-1s19.6-.8 19.8-.9c.1-.1 1.5-.1 3 0 1.5.2 10.6.6 20.2 1z"/><path d="M618.9 221.4c-.2.2-5.6.6-12 1-6.3.3-12.4.8-13.5 1-1 .2-5 .7-8.9 1-3.8.4-8.1.9-9.5 1.1-1.4.3-4.1.7-6 1-1.9.3-4.6.7-6 1-1.4.3-4.1.7-6 1-54.8 9-120.5 36.5-167.5 70.1-29.7 21.3-55.4 45.1-77.9 71.9-25.7 30.9-50 71.1-64.1 106-2 4.9-4 9.9-4.5 11-3.1 6.6-14.2 43.3-16.5 54.1-.2 1.1-.9 4.1-1.5 6.9-1.4 6-4.6 24-5.5 31-.3 2.7-.8 6.1-1 7.5-.5 3.1-1.2 10.8-2.2 22-1.4 17.4-.8 59.5 1.3 78 .8 7.4 1.3 12.2 1.9 17 .8 6.2 4.5 28.2 5 28.9.1.3.6 2.4.9 4.6.4 2.2 1.8 8.5 3.2 14 1.4 5.5 2.7 10.7 2.9 11.5 1.1 5 8.1 26.2 11.8 36 23.5 61.6 60.5 115.6 107.1 156.2 12.5 10.9 12.5 10.9 23.3 19.1 37.2 28.1 80.4 49.9 127.8 64.2 27.2 8.3 56.8 14.2 85 17 3.3.4 7.1.8 8.5 1 5.3.8 29.2 1.8 45 1.8 22.8.1 51.2-1.6 66-3.8 1.4-.2 4.8-.6 7.5-1 2.8-.3 6.2-.8 7.8-1 1.5-.3 4.2-.7 6-1 1.7-.3 5.5-1 8.2-1.5 2.8-.5 6.6-1.2 8.5-1.5 1.9-.3 4.2-.8 5-1 .8-.2 2.6-.6 4-.9 8.6-1.5 40.9-10.5 54.9-15.3 25-8.4 64.2-25.4 80.1-34.7 1.4-.8 7-4 12.5-7.2 13.3-7.6 32.5-19.9 45.5-29.2 10.5-7.6 36.3-27.9 41-32.4l2.5-2.4V562.5H615.7l.1 91c0 50 .1 91.7.1 92.5.1 1.3 10.3 1.5 85.4 1.5h85.2l.1 40.3.2 40.2-2.7 1.9c-17.5 12.1-54.2 25.8-82.1 30.7-2.5.4-4.7.8-5 .9-.3.1-3.4.5-7 .9-3.6.5-7.4 1-8.5 1.2-2.8.6-25.5 1.8-34 1.8-11.1 0-29.5-1.2-35-2.3-2.7-.5-7-1.2-9.5-1.6-7.2-1-19.7-4.3-30.9-8.2-63.9-21.8-112.1-74-131.1-141.9-2.3-8.1-2.3-8.1-4.5-18.4-5.2-24.4-6.5-60.4-3-86.5 1.1-8.2 1.8-11.8 4.5-23.1 13.8-57.8 46.6-105.7 93.5-136.6 24-15.7 56.2-27.1 84-29.5 13.8-1.2 45.6-.6 57.5 1.2 15 2.2 19.5 3 27 4.7 23.3 5.2 51.7 16.8 71.4 29.1 8.7 5.4 21.5 14.1 28.1 19 7.6 5.7 33.5 26.7 36.3 29.4.7.7 1.7 1.3 2.2 1.3.5 0 9.1-10 19.2-22.1 10.1-12.2 27.3-33 38.3-46.3 11-13.3 31.9-38.5 46.4-56.1 14.6-17.6 26.9-32.3 27.4-32.6.5-.3-1.8-2.8-5-5.5s-6-5.1-6.3-5.4c-7.1-7.1-38.8-31.2-55.5-42.1-43.9-28.7-92.4-49.1-139.9-58.9-7.6-1.5-20.1-3.9-23.6-4.4-6.9-1.1-16.6-2.5-21.5-3-2.7-.3-6.9-.8-9.2-1.1-2.4-.3-7.8-.7-12-1-4.3-.3-10.5-.8-13.8-1.1-7-.6-63.1-1.5-63.6-1zm50.6 39.1c8.8.3 17.4.8 19 .9 1.7.2 6.8.6 11.5 1s9.6.9 11 1.1c1.4.3 4.5.7 7 1 34.5 4.1 78.7 16.1 108.6 29.5 28.6 12.8 65.9 35.8 87.8 54.2.8.6-7.9 12.1-18 23.8-1.2 1.4-9 10.8-17.4 21-8.4 10.2-16.5 19.9-17.9 21.6-1.4 1.7-4.2 5-6.2 7.5-10.3 12.6-19.3 23.6-20.5 24.8-1.1 1.2-2.4.6-8.6-4.1-10.7-8-27.5-19.8-28.2-19.8-.2 0-4.1-2.3-8.6-5-9.1-5.7-27.9-15.2-38.5-19.4-13.1-5.3-34.2-11.7-47-14.2-11-2.2-23.7-4-33.5-4.8-3.6-.4-9.2-.8-12.5-1.1-7.2-.7-36.6-.7-41.5-.1-1.9.3-6 .7-9.1 1.1-3.1.3-6.6.7-7.7 1-1.1.2-3.5.6-5.3.9-18.8 3.1-39.7 10.1-59.4 19.7-24.1 11.7-42.8 25.1-63 45.4-25.3 25.2-42.3 50.3-56.7 83.5-7.6 17.5-16.4 48.2-18.4 64-.2 1.9-.6 4.8-.8 6.5-2 13.4-2.7 22.9-2.7 38.5-.1 58.7 15 111.6 44.6 156.5 4.1 6.2 8 11.9 8.7 12.7.7.7 2.9 3.4 4.8 5.8 6.9 9 23.5 25.8 33.5 34 34.9 28.5 75 46 121.6 53.1 23.3 3.6 67.2 3.2 90.9-.7 1.9-.3 4.9-.8 6.5-1 3.1-.4 4.5-.7 13.5-2.5 24.7-5 51.1-14.4 72.5-25.7 9.5-5 8.9-4.6 23.7-14.6 9.9-6.6 11.8-8.3 11.9-10.5V712.7l-.1-3.7H654.3v-54l-.1-54h3.2c3.6-.1 289.2-.1 291.9 0 1.6 0 1.7 7.8 1.5 153.7l-.3 153.7-12.9 9.7c-39.9 30.3-80.8 53.7-120.6 68.8-4.7 1.8-9.4 3.7-10.5 4.2-2.4 1-26.3 8.9-28.5 9.4-.8.2-5.5 1.4-10.5 2.8-8.3 2.3-12.6 3.4-16.5 4.2-2.1.4-22.1 4.6-24.3 5-2.5.6-29.1 4.3-35.2 4.9-18.2 2.1-70.3 2.8-87 1.2-8.5-.8-21.6-2.2-27.5-3.1-1.9-.2-5.5-.7-8-1-2.5-.3-11-2-19-3.6-8-1.7-15.5-3.2-16.7-3.5-4.7-.9-26.3-7.5-36.3-10.9-117.5-40.7-202.6-135.1-231.6-256.8-.2-.9-.6-2.5-.9-3.5-.2-.9-1.3-6.2-2.4-11.7-4.6-22.9-5.6-31.2-7.7-61-1.2-18.4-.2-52.3 2.1-70 1.5-11.2 2.2-15.7 4-26.5.3-1.9 2.2-10 4.1-18 8.6-35.9 20.1-65.2 38.7-99 6.7-12.3 29.8-45.8 36.1-52.6.6-.7 3.3-3.8 6.1-7 9.2-11 29-30.4 41.4-40.9 47.1-39.6 100.8-66 162.6-80 8.3-1.9 17-3.7 19.5-4 2.5-.3 5.2-.8 6-1 .8-.2 4.2-.6 7.5-1 3.3-.3 7.4-.8 9-1 8.3-1.1 13-1.5 23.5-2.1 6.3-.3 11.6-.6 11.7-.7.3-.4 27.7.1 42.8.8z"/></svg>