<svg xmlns="http://www.w3.org/2000/svg" viewBox="0 0 100 100">
    <path d="M17.251 97.661H87.31c.526 0 1.053-.117 1.521-.351.467-.234 11.169-5.556 11.169-16.257V26.316a3.52 3.52 0 0 0-3.509-3.509h-12.28V5.848a3.52 3.52 0 0 0-3.509-3.509H3.509A3.52 3.52 0 0 0 0 5.848v74.444c0 .234 0 .526.058.76.176.702 3.86 16.609 17.193 16.609zM7.018 9.357h70.175v66.082a3.52 3.52 0 0 0 3.509 3.509 3.52 3.52 0 0 0 3.509-3.509V29.825h8.772v51.228c0 5.146-4.795 8.538-6.608 9.591H17.251c-6.901 0-9.708-8.947-10.234-10.819l.001-70.468z"
          fill="#000"/>
    <path d="M40.936 24.561a3.52 3.52 0 0 0-3.509-3.509H21.053a3.52 3.52 0 0 0-3.509 3.509v18.714a3.52 3.52 0 0 0 3.509 3.509h16.374a3.52 3.52 0 0 0 3.509-3.509V24.561zM24.561 28.07h9.357v11.696h-9.357V28.07zM19.883 79.532h45.614a3.52 3.52 0 0 0 3.509-3.509 3.52 3.52 0 0 0-3.509-3.509H19.883a3.52 3.52 0 0 0-3.509 3.509 3.52 3.52 0 0 0 3.509 3.509zM20.468 62.573h44.444c1.93 0 3.509-1.579 3.509-3.509s-1.579-3.509-3.509-3.509H20.468c-1.93 0-3.509 1.579-3.509 3.509s1.579 3.509 3.509 3.509zM52.047 28.655h13.45c1.93 0 3.509-1.579 3.509-3.509s-1.579-3.509-3.509-3.509h-13.45c-1.93 0-3.509 1.579-3.509 3.509s1.579 3.509 3.509 3.509zM52.047 45.614h13.45a3.52 3.52 0 0 0 3.509-3.509 3.52 3.52 0 0 0-3.509-3.509h-13.45a3.52 3.52 0 0 0-3.509 3.509 3.52 3.52 0 0 0 3.509 3.509z"
          fill="#000"/>
</svg>