<svg xmlns="http://www.w3.org/2000/svg" viewBox="0 0 100 100">
    <path d="M79.369 45.667c0-4.684-3.811-8.495-8.495-8.495s-8.495 3.811-8.495 8.495 3.811 8.495 8.495 8.495 8.495-3.811 8.495-8.495zm-12.136 0c0-2.008 1.633-3.641 3.641-3.641s3.641 1.633 3.641 3.641-1.633 3.641-3.641 3.641-3.641-1.633-3.641-3.641zM56.311 71.152a2.428 2.428 0 0 0 4.854 0c0-5.353 4.355-9.709 9.709-9.709 5.353 0 9.709 4.355 9.709 9.709a2.428 2.428 0 0 0 4.854 0c0-8.03-6.533-14.563-14.563-14.563s-14.563 6.533-14.563 14.563z"
          fill="#000"/>
    <path d="M92.718 21.835h-61.14v-1.259c0-5.234-4.258-9.493-9.493-9.493-5.234 0-9.493 4.258-9.493 9.493v20.982c0 3.899 3.172 7.072 7.072 7.072s7.072-3.172 7.072-7.072V31.543a2.428 2.428 0 0 0-4.854 0v10.015a2.22 2.22 0 0 1-2.217 2.217 2.22 2.22 0 0 1-2.217-2.217V20.576c0-2.558 2.081-4.639 4.638-4.639s4.639 2.081 4.639 4.639v1.259H22.3a2.427 2.427 0 1 0 0 4.854h70.418a2.43 2.43 0 0 1 2.427 2.427v52.519a2.43 2.43 0 0 1-2.427 2.427H7.282a2.43 2.43 0 0 1-2.427-2.427V29.116a2.43 2.43 0 0 1 2.427-2.427h.456a2.427 2.427 0 1 0 0-4.854h-.456C3.267 21.835 0 25.101 0 29.116v52.519c0 4.015 3.267 7.282 7.282 7.282h85.437c4.015 0 7.282-3.267 7.282-7.282V29.116c-.001-4.015-3.268-7.281-7.283-7.281z"
          fill="#000"/>
    <path d="M44.175 45.966a2.427 2.427 0 1 0 0-4.854H31.59a2.427 2.427 0 1 0 0 4.854h12.585zM14.563 55.077a2.428 2.428 0 0 0 2.427 2.427h27.184a2.427 2.427 0 1 0 0-4.854H16.99a2.427 2.427 0 0 0-2.427 2.427zM16.99 69.64h27.184a2.427 2.427 0 1 0 0-4.854H16.99a2.427 2.427 0 1 0 0 4.854z"
          fill="#000"/>
</svg>