<svg xmlns="http://www.w3.org/2000/svg" viewBox="0 0 100 100">
    <path d="M84.398 13.592C76.424 6.047 63.339-.66 47.963.071c-8.156.39-14.384 2.057-20.181 5.136-5.488 2.898-10.491 6.383-14.375 10.607C5.589 24.327-.676 36.35.059 52.08c.753 15.899 7.08 25.898 15.566 34.386 8.59 8.59 20.136 13.601 36.443 13.516 14.84-.083 26.517-7.368 34.386-15.557 8.237-8.578 13.975-20.07 13.522-36.452-.425-15.09-7.472-26.73-15.578-34.381zm3.595 17.436C78.94 28.49 70.641 25.892 61.48 23.17c-3.843-1.149-6.992-2.282-11.809-2.057-.23-.659.667-1.007 1.029-1.366 3.342-3.344 7.421-7.165 10.946-10.437 12.749 3.283 20.957 11.1 26.347 21.718zm-16.25 18.995c.026 12.54-9.867 21.945-22.072 21.726-11.918-.221-22.151-9.988-21.379-22.753.534-8.828 5.828-15.579 12.485-18.647 2.051-.952 4.707-1.604 7.699-1.884 6.847-.628 12.984 2.477 16.42 5.825 3.496 3.388 6.836 8.616 6.847 15.733zM52.413 7.432c.133.818-.875 1.088-1.368 1.534-4.16 3.841-8.568 8.126-12.826 12.148-4.871 4.593-10.231 9.055-13.515 14.883-1.816-5.141-2.786-11.122-4.276-16.593 7.396-7.249 17.035-12.265 31.985-11.972zm-37.98 19.335c.138-.039.158.066.171.168 1.466 6.302 3.259 12.964 4.782 19.501 1.527 6.53 2.508 13.248 5.642 18.472-5.329-.994-10.804-3.339-16.59-4.447-2.634-12.651.257-26.282 5.995-33.694zm-2.569 42.417c12.64 2.889 23.943 8.568 38.494 10.093.267.626-.654.996-1.028 1.365-3.377 3.377-7.546 7.16-11.122 10.443-12.328-3.756-20.792-11.366-26.344-21.901zm61.417 16.593c-6.267 4.351-15.682 7.554-25.665 6.847 5.226-5.563 11.03-10.981 16.768-16.247 4.044-3.722 8.336-6.99 10.946-12.316.954 2.561 2.361 8.802 3.252 12.66.289 1.252.994 3.44.856 4.099-.292 1.353-4.997 4.158-6.157 4.957zM85.77 73.636C81.382 61.429 80.713 45.5 74.817 34.805c5.611 1.69 11.086 3.515 16.765 5.128 3.189 12.534-.385 26.087-5.812 33.703z"
          fill="#000"/>
</svg>