<svg xmlns="http://www.w3.org/2000/svg" viewBox="0 0 100 100">
    <g fill="#000">
        <path d="M88.333 21.806H61.667a1.667 1.667 0 1 0 0 3.334h26.667a1.667 1.667 0 1 0-.001-3.334zM88.333 11.806H45a1.667 1.667 0 0 0 0 3.333h43.333a1.667 1.667 0 1 0 0-3.333zM90 33.472c0-.92-.745-1.667-1.667-1.667H45a1.668 1.668 0 0 0 0 3.334h43.333c.922 0 1.667-.747 1.667-1.667z"/>
        <path d="M95 .139H5c-2.757 0-5 2.243-5 5v70c0 2.757 2.243 5 5 5h60a1.667 1.667 0 1 0 0-3.333H5a1.67 1.67 0 0 1-1.667-1.667v-70A1.67 1.67 0 0 1 5 3.472h90c.92 0 1.667.748 1.667 1.667v40a1.667 1.667 0 1 0 3.333 0v-40c0-2.757-2.243-5-5-5z"/>
        <path d="M81.617 41.327c-10.082 0-18.283 8.195-18.283 18.267 0 5.673 2.598 10.752 6.667 14.108v24.492a1.667 1.667 0 0 0 2.59 1.387l9.077-6.05 9.075 6.05a1.667 1.667 0 0 0 2.592-1.387V73.612c4.01-3.357 6.567-8.393 6.567-14.018-.002-10.072-8.204-18.267-18.285-18.267zM90 95.081l-7.408-4.938a1.666 1.666 0 0 0-1.848 0l-7.41 4.938V75.872a18.113 18.113 0 0 0 6.667 1.923v5.677a1.667 1.667 0 1 0 3.334 0V77.79a18.123 18.123 0 0 0 6.667-1.967v19.258zm-8.383-20.535c-8.243 0-14.95-6.707-14.95-14.95 0-8.233 6.705-14.933 14.95-14.933s14.952 6.7 14.952 14.933c-.002 8.243-6.709 14.95-14.952 14.95z"/>
        <path d="M81.612 50.209a1.667 1.667 0 1 0 0 3.334c3.342 0 6.062 2.718 6.062 6.06s-2.72 6.06-6.062 6.06a1.667 1.667 0 1 0 0 3.334c5.18 0 9.395-4.213 9.395-9.393 0-5.18-4.215-9.395-9.395-9.395zM28.268 58.841a1.671 1.671 0 0 0-1.347-1.135l-5.567-.807-2.495-5.048a1.666 1.666 0 0 0-1.493-.928h-.002c-.635 0-1.215.362-1.493.932L13.393 56.9l-5.567.807a1.67 1.67 0 0 0-1.347 1.135 1.663 1.663 0 0 0 .422 1.708l4.023 3.923-.95 5.535a1.665 1.665 0 0 0 2.417 1.758l4.975-2.612 4.993 2.612a1.664 1.664 0 0 0 2.413-1.76l-.95-5.537 4.022-3.922a1.657 1.657 0 0 0 .424-1.706zm-7.398 3.855a1.664 1.664 0 0 0-.478 1.475l.528 3.078-2.782-1.455a1.66 1.66 0 0 0-1.547 0l-2.76 1.45.527-3.073a1.668 1.668 0 0 0-.478-1.475l-2.232-2.177 3.09-.448a1.671 1.671 0 0 0 1.257-.915l1.375-2.798 1.385 2.802c.243.492.712.833 1.255.912l3.09.448-2.23 2.176zM54.935 58.841a1.671 1.671 0 0 0-1.347-1.135l-5.567-.807-2.495-5.048a1.666 1.666 0 0 0-1.493-.928h-.002c-.635 0-1.215.362-1.493.932L40.06 56.9l-5.565.807a1.67 1.67 0 0 0-1.347 1.135 1.663 1.663 0 0 0 .422 1.708l4.023 3.923-.95 5.535a1.665 1.665 0 0 0 2.417 1.758l4.975-2.612 4.993 2.612a1.663 1.663 0 0 0 2.413-1.76l-.95-5.537 4.022-3.922a1.664 1.664 0 0 0 .422-1.706zm-7.398 3.855a1.664 1.664 0 0 0-.478 1.475l.528 3.078-2.782-1.455a1.66 1.66 0 0 0-1.547 0l-2.76 1.45.527-3.073a1.668 1.668 0 0 0-.478-1.475l-2.232-2.177 3.09-.448a1.671 1.671 0 0 0 1.257-.915l1.375-2.798 1.385 2.802c.243.492.712.833 1.255.912l3.09.448-2.23 2.176zM11.667 15.139h26.667a1.668 1.668 0 0 0 0-3.334H11.667a1.668 1.668 0 0 0 0 3.334zM11.667 25.139H55a1.667 1.667 0 1 0 0-3.333H11.667a1.667 1.667 0 0 0 0 3.333zM11.667 35.139h26.667a1.668 1.668 0 0 0 0-3.334H11.667a1.668 1.668 0 0 0 0 3.334zM56.667 43.472c0-.92-.745-1.667-1.667-1.667H11.667a1.668 1.668 0 0 0 0 3.334H55c.922 0 1.667-.747 1.667-1.667z"/>
    </g>
</svg>