<svg xmlns="http://www.w3.org/2000/svg" viewBox="0 0 100 100">
    <path d="M98.019 36.045a3.267 3.267 0 0 0-4.042-2.22 3.262 3.262 0 0 0-2.221 4.043 43.382 43.382 0 0 1 1.722 12.131c0 23.973-19.504 43.478-43.478 43.478-12.277 0-23.84-5.198-32.028-14.131h6.401c1.8 0 3.261-1.46 3.261-3.261a3.243 3.243 0 0 0-3.261-3.239H11.33c-1.955 0-3.695 1.79-3.261 3.932v12.351a3.262 3.262 0 0 0 6.522 0v-3.862C23.896 94.615 36.582 100 50 100c27.571 0 50-22.43 50-50 0-4.744-.667-9.44-1.981-13.955zM89.13 7.609c-1.8 0-3.261 1.46-3.261 3.261v4.339C76.526 5.569 63.646 0 50 0 22.429 0 0 22.43 0 50c0 4.745.667 9.44 1.981 13.954a3.26 3.26 0 1 0 6.263-1.823A43.34 43.34 0 0 1 6.522 50C6.522 26.027 26.025 6.522 50 6.522c12.279 0 23.841 5.196 32.027 14.13h-5.94a3.262 3.262 0 0 0 0 6.522H88.767c2.341 0 3.624-1.514 3.624-3.261V10.87a3.261 3.261 0 0 0-3.261-3.261z"
          fill="#000"/>
    <path d="M72.847 40.217H56.521V17.391c0-3.217-4.17-4.487-5.952-1.809l-26.087 39.13c-1.446 2.171.12 5.07 2.713 5.07h16.304v22.826c0 3.217 4.191 4.486 5.974 1.809l26.087-39.13c1.446-2.171-.12-5.07-2.713-5.07z"
          fill="#000"/>
</svg>