<?xml version="1.0" standalone="no"?>
<!DOCTYPE svg PUBLIC "-//W3C//DTD SVG 20010904//EN"
 "http://www.w3.org/TR/2001/REC-SVG-20010904/DTD/svg10.dtd">
<svg version="1.0" xmlns="http://www.w3.org/2000/svg"
 width="500.000000pt" height="500.000000pt" viewBox="0 0 500.000000 500.000000"
 preserveAspectRatio="xMidYMid meet">
<metadata>
Created by potrace 1.11, written by Peter Selinger 2001-2013
</metadata>
<g transform="translate(0.000000,500.000000) scale(0.100000,-0.100000)"
fill="#000000" stroke="none">
<path d="M2417 4974 c-1 -1 -49 -4 -107 -8 -127 -8 -140 -10 -305 -42 -146
-29 -336 -86 -450 -134 -50 -22 -255 -123 -295 -147 -545 -318 -941 -818
-1129 -1425 -122 -393 -138 -857 -45 -1268 187 -832 800 -1512 1614 -1792 47
-16 92 -31 100 -34 55 -15 181 -45 210 -50 19 -3 37 -7 40 -9 3 -2 33 -6 65
-10 33 -3 67 -8 75 -11 80 -21 501 -21 630 0 14 3 41 7 60 10 144 22 370 79
455 115 11 5 63 26 115 47 102 40 244 112 346 175 56 34 85 53 173 117 116 83
308 260 396 365 22 27 47 55 54 64 77 82 236 331 309 484 84 176 168 422 197
574 72 386 65 743 -21 1100 -21 84 -94 308 -105 320 -5 5 -9 15 -9 23 0 21
-131 279 -190 372 -262 418 -664 768 -1090 950 -41 17 -88 38 -105 45 -77 34
-318 105 -415 121 -14 3 -47 9 -75 14 -78 14 -115 19 -211 26 -89 6 -282 12
-287 8z"/>
</g>
</svg>
