<?xml version="1.0" standalone="no"?>
<!DOCTYPE svg PUBLIC "-//W3C//DTD SVG 20010904//EN"
 "http://www.w3.org/TR/2001/REC-SVG-20010904/DTD/svg10.dtd">
<svg version="1.0" xmlns="http://www.w3.org/2000/svg"
 width="1024.000000pt" height="1024.000000pt" viewBox="0 0 1024.000000 1024.000000"
 preserveAspectRatio="xMidYMid meet">
<metadata>
Created by potrace 1.11, written by Peter Selinger 2001-2013
</metadata>
<g transform="translate(0.000000,1024.000000) scale(0.100000,-0.100000)"
fill="#000000" stroke="none">
<path d="M4869 10176 c-2 -2 -53 -7 -114 -10 -60 -4 -123 -8 -140 -11 -16 -2
-54 -6 -84 -10 -51 -5 -144 -18 -226 -30 -612 -95 -1248 -329 -1805 -667 -63
-38 -124 -74 -135 -81 -11 -7 -22 -14 -25 -17 -3 -3 -39 -28 -80 -55 -359
-240 -747 -597 -1060 -975 -8 -10 -23 -27 -32 -39 -9 -11 -57 -73 -105 -138
-437 -583 -755 -1289 -898 -1993 -21 -106 -24 -120 -31 -164 -3 -22 -7 -43 -9
-46 -1 -3 -6 -30 -9 -61 -4 -31 -9 -67 -11 -80 -3 -13 -7 -46 -10 -74 -2 -27
-7 -72 -10 -100 -17 -151 -22 -300 -19 -565 2 -162 5 -311 8 -330 2 -19 7 -71
11 -115 4 -44 9 -87 10 -95 2 -9 6 -43 10 -75 26 -225 102 -573 181 -825 204
-652 523 -1232 972 -1770 89 -106 386 -411 492 -506 481 -428 1052 -768 1660
-988 85 -30 218 -72 380 -120 60 -17 294 -72 350 -81 19 -3 42 -8 50 -10 8 -2
38 -7 65 -11 28 -3 53 -8 56 -10 3 -2 34 -6 70 -10 35 -3 67 -8 70 -10 4 -2
37 -6 75 -10 38 -3 83 -8 99 -10 190 -26 777 -25 995 0 19 3 60 7 90 11 110
12 212 26 280 40 13 2 42 7 64 11 23 3 90 17 151 31 60 13 117 26 126 28 144
29 535 159 739 244 199 84 502 236 600 301 8 6 22 13 30 17 8 4 65 38 125 76
493 311 943 723 1318 1207 70 90 76 98 171 241 38 57 77 115 86 129 107 158
285 500 382 730 172 410 307 906 352 1290 2 19 7 58 11 85 3 28 8 64 10 80 27
203 27 852 0 1016 -2 13 -6 55 -10 92 -3 37 -8 76 -9 85 -2 9 -6 38 -10 63 -8
54 -10 66 -30 179 -143 796 -516 1612 -1026 2244 -134 166 -419 466 -580 612
-255 230 -561 447 -925 656 -75 43 -382 191 -492 237 -183 77 -551 203 -661
226 -9 2 -65 15 -123 29 -107 26 -336 70 -419 80 -25 4 -63 9 -85 12 -22 3
-51 7 -65 9 -28 4 -138 15 -215 22 -65 5 -631 13 -636 9z"/>
</g>
</svg>
