<?xml version="1.0" standalone="no"?>
<!DOCTYPE svg PUBLIC "-//W3C//DTD SVG 20010904//EN"
 "http://www.w3.org/TR/2001/REC-SVG-20010904/DTD/svg10.dtd">
<svg version="1.0" xmlns="http://www.w3.org/2000/svg"
 width="1280.000000pt" height="1280.000000pt" viewBox="0 0 1280.000000 1280.000000"
 preserveAspectRatio="xMidYMid meet">
<metadata>
Created by potrace 1.11, written by Peter Selinger 2001-2013
</metadata>
<g transform="translate(0.000000,1280.000000) scale(0.100000,-0.100000)"
fill="#000000" stroke="none">
<path d="M6208 12735 c-2 -1 -66 -5 -143 -9 -77 -3 -160 -8 -185 -10 -25 -3
-78 -8 -118 -11 -40 -4 -81 -8 -90 -10 -9 -1 -46 -6 -82 -10 -36 -4 -73 -9
-83 -11 -10 -2 -51 -8 -90 -13 -40 -6 -81 -12 -92 -15 -11 -2 -58 -11 -105
-20 -93 -17 -119 -23 -165 -32 -229 -45 -805 -218 -950 -284 -11 -5 -76 -32
-145 -61 -282 -116 -587 -272 -865 -442 -859 -525 -1604 -1272 -2114 -2122
-39 -66 -76 -127 -81 -135 -6 -8 -13 -22 -17 -30 -4 -8 -19 -36 -35 -62 -36
-62 -157 -301 -203 -403 -32 -68 -55 -121 -128 -295 -6 -14 -11 -27 -12 -30 0
-3 -15 -43 -33 -89 -66 -167 -178 -520 -207 -647 -2 -10 -14 -57 -25 -104 -12
-47 -24 -96 -26 -110 -3 -14 -16 -77 -29 -140 -24 -114 -38 -197 -51 -295 -3
-27 -8 -52 -9 -55 -2 -3 -6 -37 -10 -75 -4 -39 -9 -78 -10 -87 -2 -9 -6 -50
-10 -90 -3 -40 -8 -93 -11 -118 -24 -258 -24 -770 1 -1045 2 -27 7 -79 10
-115 6 -66 23 -201 29 -236 2 -10 7 -41 10 -69 8 -54 16 -108 21 -134 1 -9 10
-54 19 -101 9 -47 18 -96 21 -110 3 -14 8 -38 11 -55 3 -16 28 -120 56 -230
217 -859 617 -1663 1183 -2375 50 -63 98 -122 106 -130 8 -8 27 -31 43 -50
102 -126 397 -427 566 -579 58 -52 107 -97 110 -101 3 -3 21 -17 42 -32 20
-15 42 -33 50 -41 67 -65 355 -278 543 -403 333 -221 715 -424 1070 -569 77
-31 154 -63 170 -70 133 -57 637 -211 790 -241 11 -2 47 -10 80 -18 33 -9 71
-17 85 -20 14 -2 66 -12 115 -21 50 -10 99 -19 110 -21 11 -2 34 -6 50 -8 17
-3 50 -8 75 -12 25 -3 52 -7 60 -9 8 -2 47 -7 85 -11 39 -3 72 -8 75 -9 3 -2
46 -6 95 -10 50 -4 101 -8 115 -11 139 -23 848 -23 1045 1 17 2 66 6 109 10
43 4 86 8 95 10 9 1 43 6 76 9 33 4 71 9 85 11 14 2 43 7 65 10 43 6 97 15
130 22 11 2 35 6 54 9 19 2 52 9 75 14 22 5 55 11 71 14 50 9 258 57 265 61 4
2 20 7 37 10 37 6 400 112 428 124 11 5 49 19 85 31 36 12 148 55 250 95 981
388 1842 1017 2545 1860 181 216 448 601 587 845 102 179 106 186 183 340 218
432 386 893 501 1370 7 32 73 350 78 381 3 19 11 66 16 106 6 39 12 80 14 90
2 10 7 47 11 83 4 36 9 73 10 82 2 9 6 50 10 90 3 40 8 93 11 118 23 248 23
857 -1 1045 -2 17 -6 62 -9 101 -15 178 -50 406 -101 664 -3 14 -8 39 -11 55
-32 179 -177 669 -272 916 -256 666 -643 1319 -1093 1843 -10 12 -26 30 -36
42 -198 230 -479 506 -738 724 -27 23 -61 51 -74 63 -119 100 -459 340 -656
463 -197 123 -545 307 -745 394 -41 18 -88 38 -105 46 -222 100 -747 273 -995
329 -159 35 -393 80 -522 99 -209 31 -289 40 -568 62 -79 6 -577 14 -582 9z
m412 -390 c96 -3 198 -8 225 -10 116 -9 244 -22 300 -30 130 -17 148 -20 235
-35 30 -5 71 -12 90 -15 64 -10 234 -46 315 -67 44 -11 88 -21 97 -23 89 -18
410 -119 598 -188 572 -210 1214 -577 1670 -956 237 -197 561 -507 700 -671
30 -35 62 -71 70 -80 8 -8 44 -51 80 -95 35 -44 67 -82 70 -85 20 -18 209
-281 295 -410 418 -630 712 -1336 864 -2075 11 -55 23 -116 26 -135 3 -19 10
-60 15 -90 14 -84 19 -111 26 -165 3 -27 8 -58 9 -67 2 -9 6 -47 10 -85 3 -37
8 -81 10 -98 2 -16 7 -82 10 -145 4 -63 9 -135 11 -160 5 -67 5 -433 -1 -530
-6 -113 -15 -244 -21 -300 -17 -166 -21 -202 -44 -350 -9 -62 -43 -250 -55
-310 -67 -327 -204 -761 -345 -1095 -93 -221 -265 -552 -410 -794 -123 -204
-451 -651 -564 -768 -12 -12 -39 -43 -61 -70 -42 -50 -388 -399 -465 -469 -93
-84 -289 -244 -405 -331 -151 -113 -452 -317 -490 -332 -5 -2 -17 -9 -25 -16
-8 -7 -37 -25 -65 -40 -27 -15 -81 -45 -120 -67 -108 -61 -436 -220 -575 -278
-364 -152 -823 -291 -1180 -356 -91 -17 -191 -34 -225 -39 -22 -3 -53 -7 -70
-10 -53 -8 -98 -13 -170 -20 -38 -4 -80 -8 -93 -10 -13 -2 -71 -7 -130 -10
-59 -4 -132 -8 -162 -10 -79 -5 -520 -6 -550 -1 -14 2 -81 7 -149 11 -68 4
-131 8 -140 10 -9 1 -50 6 -91 10 -41 4 -77 8 -80 10 -3 1 -36 6 -75 9 -38 4
-77 9 -85 11 -8 2 -31 7 -50 10 -100 16 -174 29 -220 39 -14 3 -41 9 -60 12
-19 4 -80 18 -135 31 -55 14 -109 27 -119 29 -10 2 -76 20 -145 39 -866 248
-1656 683 -2336 1286 -158 140 -480 474 -611 635 -31 38 -69 85 -85 104 -205
250 -476 671 -641 995 -251 491 -452 1076 -543 1580 -17 91 -42 246 -50 305
-3 25 -8 56 -10 70 -2 14 -7 54 -10 90 -4 36 -8 76 -10 90 -4 30 -14 180 -20
305 -6 108 -6 480 0 550 2 28 7 95 10 150 12 169 15 206 36 355 11 78 11 82
29 195 38 244 132 622 219 884 259 775 648 1450 1194 2074 115 131 411 427
507 507 29 25 61 52 69 61 15 14 113 96 151 126 263 207 467 348 730 503 161
95 490 261 650 329 69 29 134 56 145 61 211 91 701 239 975 295 62 12 249 46
310 55 41 6 86 13 100 16 14 2 50 6 80 10 30 3 65 7 78 9 12 2 62 7 110 10 48
4 101 9 117 11 17 2 118 6 225 10 107 4 196 8 198 9 1 1 15 1 30 0 15 -2 106
-6 202 -10z"/>
<path d="M6189 10586 c-2 -2 -56 -6 -120 -10 -63 -3 -124 -8 -135 -10 -10 -2
-50 -7 -89 -10 -38 -4 -81 -9 -95 -11 -14 -3 -41 -7 -60 -10 -19 -3 -46 -7
-60 -10 -14 -3 -41 -7 -60 -10 -548 -90 -1205 -365 -1675 -701 -297 -213 -554
-451 -779 -719 -257 -309 -500 -711 -641 -1060 -20 -49 -40 -99 -45 -110 -31
-66 -142 -433 -165 -541 -2 -11 -9 -41 -15 -69 -14 -60 -46 -240 -55 -310 -3
-27 -8 -61 -10 -75 -5 -31 -12 -108 -22 -220 -14 -174 -8 -595 13 -780 8 -74
13 -122 19 -170 8 -62 45 -282 50 -289 1 -3 6 -24 9 -46 4 -22 18 -85 32 -140
14 -55 27 -107 29 -115 11 -50 81 -262 118 -360 235 -616 605 -1156 1071
-1562 125 -109 125 -109 233 -191 372 -281 804 -499 1278 -642 272 -83 568
-142 850 -170 33 -4 71 -8 85 -10 53 -8 292 -18 450 -18 228 -1 512 16 660 38
14 2 48 6 75 10 28 3 62 8 78 10 15 3 42 7 60 10 17 3 55 10 82 15 28 5 66 12
85 15 19 3 42 8 50 10 8 2 26 6 40 9 86 15 409 105 549 153 250 84 642 254
801 347 14 8 70 40 125 72 133 76 325 199 455 292 105 76 363 279 410 324 l25
24 0 1815 0 1814 -1869 0 -1869 0 1 -910 c0 -500 1 -917 1 -925 1 -13 103 -15
854 -15 l852 0 1 -403 2 -402 -27 -19 c-175 -121 -542 -258 -821 -307 -25 -4
-47 -8 -50 -9 -3 -1 -34 -5 -70 -9 -36 -5 -74 -10 -85 -12 -28 -6 -255 -18
-340 -18 -111 0 -295 12 -350 23 -27 5 -70 12 -95 16 -72 10 -197 43 -309 82
-639 218 -1121 740 -1311 1419 -23 81 -23 81 -45 184 -52 244 -65 604 -30 865
11 82 18 118 45 231 138 578 466 1057 935 1366 240 157 562 271 840 295 138
12 456 6 575 -12 150 -22 195 -30 270 -47 233 -52 517 -168 714 -291 87 -54
215 -141 281 -190 76 -57 335 -267 363 -294 7 -7 17 -13 22 -13 5 0 91 100
192 221 101 122 273 330 383 463 110 133 319 385 464 561 146 176 269 323 274
326 5 3 -18 28 -50 55 -32 27 -60 51 -63 54 -71 71 -388 312 -555 421 -439
287 -924 491 -1399 589 -76 15 -201 39 -236 44 -69 11 -166 25 -215 30 -27 3
-69 8 -92 11 -24 3 -78 7 -120 10 -43 3 -105 8 -138 11 -70 6 -631 15 -636 10z
m506 -391 c88 -3 174 -8 190 -9 17 -2 68 -6 115 -10 47 -4 96 -9 110 -11 14
-3 45 -7 70 -10 345 -41 787 -161 1086 -295 286 -128 659 -358 878 -542 8 -6
-79 -121 -180 -238 -12 -14 -90 -108 -174 -210 -84 -102 -165 -199 -179 -216
-14 -17 -42 -50 -62 -75 -103 -126 -193 -236 -205 -248 -11 -12 -24 -6 -86 41
-107 80 -275 198 -282 198 -2 0 -41 23 -86 50 -91 57 -279 152 -385 194 -131
53 -342 117 -470 142 -110 22 -237 40 -335 48 -36 4 -92 8 -125 11 -72 7 -366
7 -415 1 -19 -3 -60 -7 -91 -11 -31 -3 -66 -7 -77 -10 -11 -2 -35 -6 -53 -9
-188 -31 -397 -101 -594 -197 -241 -117 -428 -251 -630 -454 -253 -252 -423
-503 -567 -835 -76 -175 -164 -482 -184 -640 -2 -19 -6 -48 -8 -65 -20 -134
-27 -229 -27 -385 -1 -587 150 -1116 446 -1565 41 -62 80 -119 87 -127 7 -7
29 -34 48 -58 69 -90 235 -258 335 -340 349 -285 750 -460 1216 -531 233 -36
672 -32 909 7 19 3 49 8 65 10 31 4 45 7 135 25 247 50 511 144 725 257 95 50
89 46 237 146 99 66 118 83 119 105 0 33 0 1283 0 1334 l-1 37 -853 0 -854 0
0 540 -1 540 32 0 c36 1 2892 1 2919 0 16 0 17 -78 15 -1537 l-3 -1537 -129
-97 c-399 -303 -808 -537 -1206 -688 -47 -18 -94 -37 -105 -42 -24 -10 -263
-89 -285 -94 -8 -2 -55 -14 -105 -28 -83 -23 -126 -34 -165 -42 -21 -4 -221
-46 -243 -50 -25 -6 -291 -43 -352 -49 -182 -21 -703 -28 -870 -12 -85 8 -216
22 -275 31 -19 2 -55 7 -80 10 -25 3 -110 20 -190 36 -80 17 -155 32 -167 35
-47 9 -263 75 -363 109 -1175 407 -2026 1351 -2316 2568 -2 9 -6 25 -9 35 -2
9 -13 62 -24 117 -46 229 -56 312 -77 610 -12 184 -2 523 21 700 15 112 22
157 40 265 3 19 22 100 41 180 86 359 201 652 387 990 67 123 298 458 361 526
6 7 33 38 61 70 92 110 290 304 414 409 471 396 1008 660 1626 800 83 19 170
37 195 40 25 3 52 8 60 10 8 2 42 6 75 10 33 3 74 8 90 10 83 11 130 15 235
21 63 3 116 6 117 7 3 4 277 -1 428 -8z"/>
</g>
</svg>
