<?xml version="1.0" standalone="no"?>
<!DOCTYPE svg PUBLIC "-//W3C//DTD SVG 20010904//EN"
 "http://www.w3.org/TR/2001/REC-SVG-20010904/DTD/svg10.dtd">
<svg version="1.0" xmlns="http://www.w3.org/2000/svg"
 width="640.000000pt" height="640.000000pt" viewBox="0 0 640.000000 640.000000"
 preserveAspectRatio="xMidYMid meet">
<metadata>
Created by potrace 1.11, written by Peter Selinger 2001-2013
</metadata>
<g transform="translate(0.000000,640.000000) scale(0.100000,-0.100000)"
fill="#000000" stroke="none">
<path d="M3008 6365 c-2 -1 -43 -6 -93 -9 -49 -4 -97 -9 -105 -11 -8 -2 -36
-6 -61 -9 -71 -9 -250 -43 -320 -61 -1057 -269 -1898 -1053 -2239 -2085 -32
-96 -80 -275 -96 -355 -44 -221 -59 -384 -59 -640 0 -160 11 -370 20 -385 1
-3 6 -32 10 -65 3 -33 18 -114 31 -180 252 -1241 1230 -2218 2471 -2470 65
-13 145 -27 178 -30 33 -4 62 -9 65 -10 30 -17 525 -26 675 -12 125 12 159 17
360 54 17 3 72 16 123 29 786 199 1444 670 1895 1356 31 47 57 88 57 91 0 3
19 36 42 73 170 280 323 730 373 1099 3 22 7 49 10 60 25 129 26 687 0 785 -2
8 -7 40 -10 70 -11 95 -55 296 -95 433 -251 858 -865 1581 -1670 1965 -194 92
-334 142 -620 222 -45 13 -221 47 -280 54 -25 3 -63 8 -85 11 -105 14 -145 16
-352 20 -122 1 -223 2 -225 0z m428 -199 c603 -51 1153 -269 1619 -641 465
-371 806 -870 985 -1440 36 -113 81 -301 95 -390 27 -178 38 -323 39 -490 0
-115 -11 -335 -19 -357 -2 -7 -6 -33 -9 -58 -3 -36 -23 -146 -41 -240 -11 -56
-52 -201 -82 -290 -230 -689 -709 -1275 -1345 -1643 -73 -42 -275 -140 -353
-171 -38 -16 -79 -32 -90 -37 -139 -60 -474 -140 -695 -165 -198 -23 -525 -23
-692 1 -18 2 -51 7 -73 10 -357 50 -737 181 -1049 361 -118 68 -136 80 -228
144 -651 457 -1089 1143 -1228 1922 -23 131 -25 149 -36 303 -12 172 -7 459
10 565 2 14 7 48 11 75 79 588 373 1191 795 1630 309 322 694 577 1095 727
216 80 471 146 640 164 27 3 56 7 62 9 7 2 63 7 125 11 62 4 114 7 115 8 5 4
284 -2 349 -8z"/>
<path d="M3009 5286 c-2 -2 -40 -7 -84 -11 -44 -4 -82 -8 -85 -10 -3 -2 -26
-6 -50 -10 -257 -37 -624 -190 -850 -354 -355 -258 -616 -613 -755 -1026 -31
-93 -72 -263 -81 -331 -3 -27 -7 -51 -9 -54 -6 -10 -18 -212 -18 -305 1 -84
11 -245 17 -283 2 -9 7 -39 10 -65 4 -27 9 -56 11 -65 27 -131 40 -183 69
-272 75 -231 166 -405 316 -605 73 -96 208 -239 281 -295 24 -19 50 -40 57
-47 28 -27 141 -102 232 -156 241 -141 549 -239 855 -274 91 -10 481 -10 567
0 79 10 132 18 218 34 284 52 610 181 875 346 69 43 250 171 265 187 3 3 26
23 52 44 l47 37 0 910 0 909 -934 0 -935 0 0 -463 0 -462 421 0 c231 0 424 -2
428 -5 3 -3 6 -94 6 -202 l0 -197 -60 -34 c-243 -140 -616 -190 -911 -122
-373 86 -662 373 -763 760 -118 450 13 924 335 1205 147 129 337 217 509 238
119 14 307 4 440 -23 208 -43 423 -159 640 -344 32 -28 62 -51 66 -51 4 0 22
19 41 43 18 23 45 56 59 72 29 33 260 311 349 420 30 37 60 73 65 79 6 6 40
48 77 92 l67 81 -34 32 c-58 52 -215 173 -291 223 -268 176 -604 300 -905 334
-30 3 -65 8 -79 11 -29 6 -525 15 -531 9z m491 -200 c14 -2 48 -7 75 -11 87
-10 178 -26 240 -42 33 -8 65 -16 70 -17 6 -1 48 -15 95 -30 186 -62 399 -179
589 -323 6 -5 -18 -47 -43 -74 -12 -13 -55 -64 -96 -114 -41 -49 -82 -99 -92
-110 -9 -11 -51 -62 -93 -113 -69 -83 -79 -91 -95 -80 -329 241 -594 334 -954
336 -197 1 -356 -34 -525 -115 -286 -137 -523 -415 -635 -743 -50 -148 -68
-266 -70 -450 -4 -373 131 -718 373 -960 164 -163 333 -258 567 -320 106 -28
177 -35 339 -34 259 0 449 39 650 133 99 46 222 126 229 149 3 9 5 168 4 353
l0 336 -402 1 c-220 0 -413 1 -428 1 l-28 1 3 268 2 267 725 2 c399 0 732 -1
740 -3 13 -3 15 -96 15 -769 0 -509 -4 -768 -10 -773 -6 -4 -44 -32 -86 -63
-152 -114 -319 -212 -509 -297 -101 -45 -346 -122 -440 -138 -14 -3 -47 -9
-75 -14 -56 -11 -97 -17 -200 -27 -128 -13 -462 -7 -560 11 -11 2 -38 7 -60
11 -22 4 -51 9 -65 12 -123 22 -311 84 -445 148 -209 98 -350 198 -510 360
-289 292 -458 655 -513 1100 -9 78 -8 424 2 495 8 61 55 281 63 292 2 5 6 18
8 30 11 54 99 261 152 356 194 346 472 608 825 777 209 100 442 164 658 181
41 4 77 8 78 9 6 5 403 -4 432 -9z"/>
</g>
</svg>
